<svg width="180" height="180" viewBox="0 0 180 180" fill="none" xmlns="http://www.w3.org/2000/svg">
  <rect width="180" height="180" rx="40" fill="#E31B1B"/>
  <g transform="translate(22, 30) scale(0.94)">
    <path d="M21.4375 90H13.0091C7.70442 90 3.86868 84.9312 5.31011 79.8262L24.7925 10.8262C25.7655 7.37984 28.9104 5 32.4915 5H101.938C115.745 5 126.938 16.1929 126.938 30C126.938 43.8071 115.745 55 101.938 55H95.9375C90.9669 55 86.9375 50.9706 86.9375 46C86.9375 41.0294 90.9669 37 95.9375 37H112.938C127.573 37 139.438 48.8645 139.438 63.5C139.438 78.1355 127.573 90 112.938 90H110.938M51.4375 90H86.9375" stroke="white" stroke-width="10" stroke-linecap="round" stroke-linejoin="round"/>
    <circle cx="36.4375" cy="89.5" r="14.5" stroke="white" stroke-width="10"/>
    <circle cx="101.438" cy="89.5" r="14.5" stroke="white" stroke-width="10"/>
  </g>
</svg>
